<?xml version="1.0" standalone="no"?>
<!DOCTYPE svg PUBLIC "-//W3C//DTD SVG 20010904//EN"
 "http://www.w3.org/TR/2001/REC-SVG-20010904/DTD/svg10.dtd">
<svg version="1.0" xmlns="http://www.w3.org/2000/svg"
 width="225.000000pt" height="225.000000pt" viewBox="0 0 225.000000 225.000000"
 preserveAspectRatio="xMidYMid meet">
<metadata>
Created by potrace 1.14, written by Peter Selinger 2001-2017
</metadata>
<g transform="translate(0.000000,225.000000) scale(0.100000,-0.100000)"
fill="#000000" stroke="none">
<path d="M60 1140 l0 -160 70 0 70 0 0 160 0 160 -70 0 -70 0 0 -160z"/>
<path d="M260 1140 l0 -160 70 0 70 0 0 88 1 87 36 -87 35 -88 63 0 63 0 35
88 36 87 1 -87 0 -88 70 0 70 0 0 160 0 161 -106 -3 -107 -3 -30 -78 -31 -78
-31 78 -31 78 -107 3 -107 3 0 -161z"/>
<path d="M907 1145 c-42 -85 -77 -157 -77 -160 0 -3 33 -5 74 -5 66 0 75 2 81
20 6 18 15 20 90 20 74 0 86 -2 95 -20 9 -17 21 -20 86 -20 l75 0 -81 160 -81
160 -92 0 -92 0 -78 -155z m189 20 c19 -46 19 -45 -21 -45 -19 0 -35 2 -35 5
0 8 33 75 37 75 2 0 11 -16 19 -35z"/>
<path d="M1340 1140 l0 -160 170 0 c192 0 222 7 261 61 33 47 34 149 2 195
-40 56 -71 64 -262 64 l-171 0 0 -160z m318 38 c7 -7 12 -24 12 -40 0 -43 -34
-60 -116 -56 l-69 3 -3 53 -3 52 83 0 c52 0 89 -5 96 -12z"/>
<path d="M1810 1027 c-14 -7 -26 -21 -28 -31 -4 -17 1 -18 63 -11 48 5 65 4
61 -4 -4 -6 -18 -11 -32 -11 -17 0 -24 -5 -24 -20 0 -16 7 -20 30 -20 17 0 30
-5 30 -11 0 -7 -23 -8 -70 -3 -73 7 -85 0 -54 -30 8 -9 27 -19 41 -22 34 -9
131 2 149 17 19 16 18 56 -3 68 -10 6 -12 11 -5 11 21 0 14 48 -10 64 -27 19
-113 21 -148 3z"/>
<path d="M2000 950 l0 -80 90 0 c77 0 93 3 110 20 33 33 30 85 -6 118 -22 19
-36 22 -110 22 l-84 0 0 -80z m155 -5 c0 -16 -8 -21 -42 -23 -40 -3 -43 -2
-43 23 0 25 3 26 43 23 34 -2 42 -7 42 -23z"/>
</g>
</svg>
